<mxfile host="app.diagrams.net" agent="Mozilla/5.0 (Windows NT 10.0; Win64; x64) AppleWebKit/537.36 (KHTML, like Gecko) Chrome/134.0.0.0 Safari/537.36" version="26.1.0" pages="3">
  <diagram name="Страница — 1" id="IMgbf6coYrRE-XWFwGS4">
    <mxGraphModel dx="1635" dy="1139" grid="1" gridSize="10" guides="1" tooltips="1" connect="1" arrows="1" fold="1" page="1" pageScale="1" pageWidth="827" pageHeight="1169" math="0" shadow="0">
      <root>
        <mxCell id="0" />
        <mxCell id="1" parent="0" />
        <mxCell id="zGnZmwIWCeBCWN7_2svQ-3" value="" style="edgeStyle=orthogonalEdgeStyle;rounded=0;orthogonalLoop=1;jettySize=auto;html=1;" edge="1" parent="1" source="zGnZmwIWCeBCWN7_2svQ-1" target="zGnZmwIWCeBCWN7_2svQ-2">
          <mxGeometry relative="1" as="geometry" />
        </mxCell>
        <mxCell id="zGnZmwIWCeBCWN7_2svQ-1" value="int main()" style="shape=process;whiteSpace=wrap;html=1;backgroundOutline=1;" vertex="1" parent="1">
          <mxGeometry x="350" y="550" width="90" height="20" as="geometry" />
        </mxCell>
        <mxCell id="zGnZmwIWCeBCWN7_2svQ-5" style="edgeStyle=orthogonalEdgeStyle;rounded=0;orthogonalLoop=1;jettySize=auto;html=1;entryX=0.5;entryY=0;entryDx=0;entryDy=0;" edge="1" parent="1" source="zGnZmwIWCeBCWN7_2svQ-2" target="zGnZmwIWCeBCWN7_2svQ-4">
          <mxGeometry relative="1" as="geometry" />
        </mxCell>
        <mxCell id="zGnZmwIWCeBCWN7_2svQ-2" value="cout &amp;lt;&amp;lt; &quot;из переменных {1,2,3} троек рядом расположенных чисел типа int могут быть длинами сторон треугольника: &quot; &amp;lt;&amp;lt; triangle(3,1,2,3) &amp;lt;&amp;lt; endl; &lt;br&gt;cout &amp;lt;&amp;lt; &quot;из переменных {4,3,3,7,4,2} троек рядом расположенных чисел типа int могут быть длинами сторон треугольника: &quot; &amp;lt;&amp;lt; triangle(6,4,3,3,7,4,2) &amp;lt;&amp;lt; endl; &lt;br&gt;cout &amp;lt;&amp;lt; &quot;из переменных {8,2,2,1,3,4,5,1,1} троек рядом расположенных чисел типа int могут быть длинами сторон треугольника: &quot; &amp;lt;&amp;lt; triangle(9,8,2,2,1,3,4,5,1,1) &amp;lt;&amp;lt; endl;" style="shape=parallelogram;perimeter=parallelogramPerimeter;whiteSpace=wrap;html=1;fixedSize=1;" vertex="1" parent="1">
          <mxGeometry x="-122.5" y="610" width="1035" height="60" as="geometry" />
        </mxCell>
        <mxCell id="zGnZmwIWCeBCWN7_2svQ-4" value="return 0;" style="ellipse;whiteSpace=wrap;html=1;" vertex="1" parent="1">
          <mxGeometry x="350" y="710" width="90" height="40" as="geometry" />
        </mxCell>
        <mxCell id="zGnZmwIWCeBCWN7_2svQ-6" value="#include &amp;lt;iostream&amp;gt;&lt;br&gt;using namespace std; bool CheckTriangle(int x, int y, int z)&lt;br&gt;int triangle(int k, ...)" style="text;html=1;align=left;verticalAlign=middle;whiteSpace=wrap;rounded=0;" vertex="1" parent="1">
          <mxGeometry x="580" y="544" width="200" height="60" as="geometry" />
        </mxCell>
        <mxCell id="zGnZmwIWCeBCWN7_2svQ-7" value="" style="endArrow=none;html=1;rounded=0;exitX=0;exitY=1;exitDx=0;exitDy=0;entryX=0;entryY=0;entryDx=0;entryDy=0;" edge="1" parent="1" source="zGnZmwIWCeBCWN7_2svQ-6" target="zGnZmwIWCeBCWN7_2svQ-6">
          <mxGeometry width="50" height="50" relative="1" as="geometry">
            <mxPoint x="680" y="570" as="sourcePoint" />
            <mxPoint x="730" y="520" as="targetPoint" />
          </mxGeometry>
        </mxCell>
        <mxCell id="zGnZmwIWCeBCWN7_2svQ-8" value="" style="endArrow=none;html=1;rounded=0;exitX=0;exitY=0;exitDx=0;exitDy=0;entryX=0.75;entryY=0;entryDx=0;entryDy=0;" edge="1" parent="1" source="zGnZmwIWCeBCWN7_2svQ-6" target="zGnZmwIWCeBCWN7_2svQ-6">
          <mxGeometry width="50" height="50" relative="1" as="geometry">
            <mxPoint x="680" y="570" as="sourcePoint" />
            <mxPoint x="730" y="520" as="targetPoint" />
          </mxGeometry>
        </mxCell>
        <mxCell id="zGnZmwIWCeBCWN7_2svQ-9" value="" style="endArrow=none;html=1;rounded=0;exitX=0;exitY=1;exitDx=0;exitDy=0;entryX=0.75;entryY=1;entryDx=0;entryDy=0;" edge="1" parent="1" source="zGnZmwIWCeBCWN7_2svQ-6" target="zGnZmwIWCeBCWN7_2svQ-6">
          <mxGeometry width="50" height="50" relative="1" as="geometry">
            <mxPoint x="650" y="600" as="sourcePoint" />
            <mxPoint x="800" y="600" as="targetPoint" />
          </mxGeometry>
        </mxCell>
        <mxCell id="zGnZmwIWCeBCWN7_2svQ-10" value="" style="endArrow=none;html=1;rounded=0;" edge="1" parent="1">
          <mxGeometry width="50" height="50" relative="1" as="geometry">
            <mxPoint x="394" y="578" as="sourcePoint" />
            <mxPoint x="580" y="578" as="targetPoint" />
          </mxGeometry>
        </mxCell>
        <mxCell id="zGnZmwIWCeBCWN7_2svQ-11" value="{" style="text;html=1;align=center;verticalAlign=middle;resizable=0;points=[];autosize=1;strokeColor=none;fillColor=none;" vertex="1" parent="1">
          <mxGeometry x="365" y="578" width="30" height="30" as="geometry" />
        </mxCell>
        <mxCell id="zGnZmwIWCeBCWN7_2svQ-12" value="}" style="text;html=1;align=center;verticalAlign=middle;resizable=0;points=[];autosize=1;strokeColor=none;fillColor=none;" vertex="1" parent="1">
          <mxGeometry x="385" y="758" width="30" height="30" as="geometry" />
        </mxCell>
      </root>
    </mxGraphModel>
  </diagram>
  <diagram id="OP3MUeKedpm9r-FMJl5D" name="Страница — 2">
    <mxGraphModel dx="462" dy="651" grid="1" gridSize="10" guides="1" tooltips="1" connect="1" arrows="1" fold="1" page="1" pageScale="1" pageWidth="827" pageHeight="1169" math="0" shadow="0">
      <root>
        <mxCell id="0" />
        <mxCell id="1" parent="0" />
        <mxCell id="FrpsA9GnNlqpsd_Uh9IM-3" style="edgeStyle=orthogonalEdgeStyle;rounded=0;orthogonalLoop=1;jettySize=auto;html=1;entryX=0.5;entryY=0;entryDx=0;entryDy=0;" edge="1" parent="1" source="FrpsA9GnNlqpsd_Uh9IM-1" target="FrpsA9GnNlqpsd_Uh9IM-2">
          <mxGeometry relative="1" as="geometry" />
        </mxCell>
        <mxCell id="FrpsA9GnNlqpsd_Uh9IM-1" value="bool CheckTriangle(int x, int y, int z)" style="shape=process;whiteSpace=wrap;html=1;backgroundOutline=1;" vertex="1" parent="1">
          <mxGeometry x="280" y="530" width="270" height="30" as="geometry" />
        </mxCell>
        <mxCell id="FrpsA9GnNlqpsd_Uh9IM-2" value="return (x+y&amp;gt;z &amp;amp;&amp;amp; y+z&amp;gt;x &amp;amp;&amp;amp; x+z&amp;gt;y);" style="ellipse;whiteSpace=wrap;html=1;" vertex="1" parent="1">
          <mxGeometry x="282" y="610" width="266" height="50" as="geometry" />
        </mxCell>
        <mxCell id="FrpsA9GnNlqpsd_Uh9IM-4" value="{" style="text;html=1;align=center;verticalAlign=middle;resizable=0;points=[];autosize=1;strokeColor=none;fillColor=none;" vertex="1" parent="1">
          <mxGeometry x="385" y="568" width="30" height="30" as="geometry" />
        </mxCell>
        <mxCell id="FrpsA9GnNlqpsd_Uh9IM-5" value="}" style="text;html=1;align=center;verticalAlign=middle;resizable=0;points=[];autosize=1;strokeColor=none;fillColor=none;" vertex="1" parent="1">
          <mxGeometry x="415" y="668" width="30" height="30" as="geometry" />
        </mxCell>
      </root>
    </mxGraphModel>
  </diagram>
  <diagram id="l7VoZbP1AkzXekttpoQn" name="Страница — 3">
    <mxGraphModel dx="808" dy="1139" grid="1" gridSize="10" guides="1" tooltips="1" connect="1" arrows="1" fold="1" page="1" pageScale="1" pageWidth="827" pageHeight="1169" math="0" shadow="0">
      <root>
        <mxCell id="0" />
        <mxCell id="1" parent="0" />
        <mxCell id="77knIaOILxar_zRCrBMy-3" value="" style="edgeStyle=orthogonalEdgeStyle;rounded=0;orthogonalLoop=1;jettySize=auto;html=1;" edge="1" parent="1" source="77knIaOILxar_zRCrBMy-1" target="77knIaOILxar_zRCrBMy-2">
          <mxGeometry relative="1" as="geometry" />
        </mxCell>
        <mxCell id="77knIaOILxar_zRCrBMy-1" value="int triangle(int k, ...)" style="shape=process;whiteSpace=wrap;html=1;backgroundOutline=1;" vertex="1" parent="1">
          <mxGeometry x="350" y="550" width="170" height="40" as="geometry" />
        </mxCell>
        <mxCell id="77knIaOILxar_zRCrBMy-5" value="" style="edgeStyle=orthogonalEdgeStyle;rounded=0;orthogonalLoop=1;jettySize=auto;html=1;" edge="1" parent="1" source="77knIaOILxar_zRCrBMy-2" target="77knIaOILxar_zRCrBMy-4">
          <mxGeometry relative="1" as="geometry" />
        </mxCell>
        <mxCell id="77knIaOILxar_zRCrBMy-2" value="int res=0; &lt;br&gt;int *ptr=&amp;amp;k;" style="whiteSpace=wrap;html=1;" vertex="1" parent="1">
          <mxGeometry x="377.5" y="640" width="115" height="50" as="geometry" />
        </mxCell>
        <mxCell id="77knIaOILxar_zRCrBMy-7" value="" style="edgeStyle=orthogonalEdgeStyle;rounded=0;orthogonalLoop=1;jettySize=auto;html=1;" edge="1" parent="1" source="77knIaOILxar_zRCrBMy-4" target="77knIaOILxar_zRCrBMy-6">
          <mxGeometry relative="1" as="geometry" />
        </mxCell>
        <mxCell id="77knIaOILxar_zRCrBMy-17" style="edgeStyle=orthogonalEdgeStyle;rounded=0;orthogonalLoop=1;jettySize=auto;html=1;entryX=0.5;entryY=0;entryDx=0;entryDy=0;" edge="1" parent="1" source="77knIaOILxar_zRCrBMy-4" target="77knIaOILxar_zRCrBMy-16">
          <mxGeometry relative="1" as="geometry" />
        </mxCell>
        <mxCell id="77knIaOILxar_zRCrBMy-4" value="while (k!=2)" style="rhombus;whiteSpace=wrap;html=1;" vertex="1" parent="1">
          <mxGeometry x="372.5" y="750" width="125" height="45" as="geometry" />
        </mxCell>
        <mxCell id="77knIaOILxar_zRCrBMy-9" value="" style="edgeStyle=orthogonalEdgeStyle;rounded=0;orthogonalLoop=1;jettySize=auto;html=1;" edge="1" parent="1" source="77knIaOILxar_zRCrBMy-6" target="77knIaOILxar_zRCrBMy-8">
          <mxGeometry relative="1" as="geometry" />
        </mxCell>
        <mxCell id="77knIaOILxar_zRCrBMy-12" style="edgeStyle=orthogonalEdgeStyle;rounded=0;orthogonalLoop=1;jettySize=auto;html=1;" edge="1" parent="1" source="77knIaOILxar_zRCrBMy-6">
          <mxGeometry relative="1" as="geometry">
            <mxPoint x="435" y="980" as="targetPoint" />
            <Array as="points">
              <mxPoint x="630" y="871" />
              <mxPoint x="630" y="980" />
            </Array>
          </mxGeometry>
        </mxCell>
        <mxCell id="77knIaOILxar_zRCrBMy-6" value="if (CheckTriangle(*(ptr+1), *(ptr+2), *(ptr+3)))" style="rhombus;whiteSpace=wrap;html=1;" vertex="1" parent="1">
          <mxGeometry x="282.5" y="830" width="305" height="82.5" as="geometry" />
        </mxCell>
        <mxCell id="77knIaOILxar_zRCrBMy-10" style="edgeStyle=orthogonalEdgeStyle;rounded=0;orthogonalLoop=1;jettySize=auto;html=1;" edge="1" parent="1" source="77knIaOILxar_zRCrBMy-8">
          <mxGeometry relative="1" as="geometry">
            <mxPoint x="440" y="980" as="targetPoint" />
            <Array as="points">
              <mxPoint x="230" y="980" />
            </Array>
          </mxGeometry>
        </mxCell>
        <mxCell id="77knIaOILxar_zRCrBMy-8" value="res++;" style="whiteSpace=wrap;html=1;" vertex="1" parent="1">
          <mxGeometry x="200" y="940" width="60" height="18.75" as="geometry" />
        </mxCell>
        <mxCell id="77knIaOILxar_zRCrBMy-15" style="edgeStyle=orthogonalEdgeStyle;rounded=0;orthogonalLoop=1;jettySize=auto;html=1;entryX=0;entryY=0.5;entryDx=0;entryDy=0;" edge="1" parent="1" source="77knIaOILxar_zRCrBMy-13" target="77knIaOILxar_zRCrBMy-4">
          <mxGeometry relative="1" as="geometry">
            <Array as="points">
              <mxPoint x="437" y="1080" />
              <mxPoint x="190" y="1080" />
              <mxPoint x="190" y="773" />
            </Array>
          </mxGeometry>
        </mxCell>
        <mxCell id="77knIaOILxar_zRCrBMy-13" value="ptr++;&lt;br&gt;k--;" style="rounded=0;whiteSpace=wrap;html=1;" vertex="1" parent="1">
          <mxGeometry x="407" y="1020" width="60" height="40" as="geometry" />
        </mxCell>
        <mxCell id="77knIaOILxar_zRCrBMy-14" value="" style="endArrow=classic;html=1;rounded=0;entryX=0.5;entryY=0;entryDx=0;entryDy=0;" edge="1" parent="1" target="77knIaOILxar_zRCrBMy-13">
          <mxGeometry width="50" height="50" relative="1" as="geometry">
            <mxPoint x="437" y="980" as="sourcePoint" />
            <mxPoint x="432" y="1020" as="targetPoint" />
          </mxGeometry>
        </mxCell>
        <mxCell id="77knIaOILxar_zRCrBMy-16" value="return res;" style="ellipse;whiteSpace=wrap;html=1;" vertex="1" parent="1">
          <mxGeometry x="650" y="856.25" width="80" height="30" as="geometry" />
        </mxCell>
        <mxCell id="77knIaOILxar_zRCrBMy-18" value="{" style="text;html=1;align=center;verticalAlign=middle;resizable=0;points=[];autosize=1;strokeColor=none;fillColor=none;" vertex="1" parent="1">
          <mxGeometry x="405" y="608" width="30" height="30" as="geometry" />
        </mxCell>
        <mxCell id="77knIaOILxar_zRCrBMy-19" value="}" style="text;html=1;align=center;verticalAlign=middle;resizable=0;points=[];autosize=1;strokeColor=none;fillColor=none;" vertex="1" parent="1">
          <mxGeometry x="675" y="888" width="30" height="30" as="geometry" />
        </mxCell>
        <mxCell id="77knIaOILxar_zRCrBMy-20" value="0" style="text;html=1;align=center;verticalAlign=middle;resizable=0;points=[];autosize=1;strokeColor=none;fillColor=none;" vertex="1" parent="1">
          <mxGeometry x="520" y="740" width="30" height="30" as="geometry" />
        </mxCell>
        <mxCell id="77knIaOILxar_zRCrBMy-21" value="0" style="text;html=1;align=center;verticalAlign=middle;resizable=0;points=[];autosize=1;strokeColor=none;fillColor=none;" vertex="1" parent="1">
          <mxGeometry x="600" y="840" width="30" height="30" as="geometry" />
        </mxCell>
        <mxCell id="77knIaOILxar_zRCrBMy-22" value="1" style="text;html=1;align=center;verticalAlign=middle;resizable=0;points=[];autosize=1;strokeColor=none;fillColor=none;" vertex="1" parent="1">
          <mxGeometry x="235" y="848" width="30" height="30" as="geometry" />
        </mxCell>
        <mxCell id="77knIaOILxar_zRCrBMy-23" value="1" style="text;html=1;align=center;verticalAlign=middle;resizable=0;points=[];autosize=1;strokeColor=none;fillColor=none;" vertex="1" parent="1">
          <mxGeometry x="435" y="798" width="30" height="30" as="geometry" />
        </mxCell>
        <mxCell id="77knIaOILxar_zRCrBMy-25" value="{" style="text;html=1;align=center;verticalAlign=middle;resizable=0;points=[];autosize=1;strokeColor=none;fillColor=none;" vertex="1" parent="1">
          <mxGeometry x="395" y="798" width="30" height="30" as="geometry" />
        </mxCell>
        <mxCell id="77knIaOILxar_zRCrBMy-26" value="}" style="text;html=1;align=center;verticalAlign=middle;resizable=0;points=[];autosize=1;strokeColor=none;fillColor=none;" vertex="1" parent="1">
          <mxGeometry x="685" y="778" width="30" height="30" as="geometry" />
        </mxCell>
      </root>
    </mxGraphModel>
  </diagram>
</mxfile>
